<?xml version="1.0" encoding="utf-8"?>
<!-- Generator: Adobe Illustrator 24.3.0, SVG Export Plug-In . SVG Version: 6.00 Build 0)  -->
<svg version="1.1" id="Capa_1" xmlns="http://www.w3.org/2000/svg" xmlns:xlink="http://www.w3.org/1999/xlink" x="0px" y="0px"
	 viewBox="0 0 512 512" style="enable-background:new 0 0 512 512;" xml:space="preserve">
<style type="text/css">
	.st0{fill:#7893E4;}
</style>
<path class="st0" d="M449.4,132.9c1.8-3.1,3-6.6,3.4-10.4c1.6-12.3-4.7-24.2-15.8-29.7c-1.6-7.7-5.8-14.5-11.4-19.4
	c-0.5-7.5-3.8-14.6-9.5-19.7c1-16.7-9.8-32-26-36.5c-16.2-4.5-33.4,3-41.1,17.8c-4.9,1-9.4,3.2-13.2,6.3c-2.7-5.6-7.2-10.3-13-13.2
	C319.3,11.8,304.8,0,287.9,0s-31.4,11.8-34.8,28.2c-0.3,0.1-0.5,0.3-0.8,0.4c-0.5-0.6-1-1.1-1.5-1.7c-11.6-12.2-30.2-14.6-44.4-5.8
	c-11.6-4.2-24.6-0.6-32.4,9.1c-1.5,1.8-2.7,3.9-3.7,6c-1.4-0.5-2.8-0.9-4.3-1.2c-7.7-14.8-24.9-22.3-41.1-17.8
	c-16.2,4.5-27,19.8-26,36.5c-5.7,5.1-9,12.2-9.5,19.7c-5.7,4.9-9.8,11.7-11.4,19.4c-11,5.5-17.4,17.4-15.8,29.7
	c0.5,3.6,1.6,7,3.3,10.1c-10.5,0-19,8.6-19,19v16.6c0,10.5,8.5,19,19,19h4l19.7,205.5c0.4,3.9,3.6,6.8,7.4,6.8c0.2,0,0.5,0,0.7,0
	c4.1-0.4,7.1-4.1,6.7-8.2L84.6,187.3h55l3.1,53.1c0.2,4,3.5,7.1,7.5,7.1c0.1,0,0.3,0,0.4,0c4.1-0.2,7.3-3.8,7-7.9l-3.1-52.3h56.6
	l6.2,309.7h-44.7l-13.2-225.5c-0.2-4.1-3.8-7.3-7.9-7c-4.1,0.2-7.3,3.8-7,7.9L157.7,497h-25c-10.5,0-19.1-7.9-20.1-18.3l-5.3-55.5
	c-0.4-4.1-4.1-7.1-8.2-6.7c-4.1,0.4-7.1,4.1-6.7,8.2l5.3,55.5c1.7,18.1,16.8,31.8,35,31.8h246.7c18.2,0,33.3-13.7,35-31.8
	l18.5-193.3c0.4-4.1-2.6-7.8-6.7-8.2c-4.1-0.4-7.8,2.6-8.2,6.7l-18.5,193.3c-1,10.4-9.6,18.3-20.1,18.3h-25l18.1-309.7h55l-6.4,66.3
	c-0.4,4.1,2.6,7.8,6.7,8.2c0.2,0,0.5,0,0.7,0c3.8,0,7.1-2.9,7.4-6.8l6.5-67.7h4c10.5,0,19-8.5,19-19v-16.6
	C465.5,142.2,458.5,134.3,449.4,132.9L449.4,132.9z M181.7,67.6c6.2-7.6,17.1-9.8,25.8-5.1c8.7,4.7,12.9,14.9,9.9,24.3
	c-0.7,2.2-0.8,4.6-0.3,6.9c-3.1-3.1-6.7-5.7-10.8-7.5c-15.4-6.8-33.4-2-43.3,11.6c-0.5,0-0.9,0.1-1.4,0.1c-0.1-0.1-0.2-0.1-0.2-0.2
	c-5-3.6-7.1-10.4-4.9-16.2c2.2-5.7,7.7-9.3,13.8-9C174.7,72.8,179,71,181.7,67.6L181.7,67.6z M257.5,79.6c9.9,0,18.4,7,20.3,16.7
	c0.8,4.2,3.7,7.9,7.6,9.8h0c5.5,2.6,8.6,8.4,7.9,14.5c-0.8,6.1-5.8,11.1-11.9,11.9c-5.4,0.7-10.5-1.7-13.5-6.1
	c-2.3-3.4-6.1-5.5-10.3-5.5h0c-4.2,0-8,2-10.3,5.5c-3,4.5-8.1,6.8-13.5,6.1c-6.1-0.8-11.1-5.8-11.9-11.9c-0.8-6.1,2.4-11.9,7.9-14.5
	c4-1.9,6.8-5.5,7.6-9.8C239.1,86.7,247.6,79.6,257.5,79.6z M333.3,67.6c2.7,3.3,7,5.2,11.4,5c6.1-0.3,11.6,3.3,13.8,9
	c2.2,5.8,0.2,12.6-4.9,16.2c-0.1,0.1-0.2,0.1-0.2,0.2c-0.5,0-0.9-0.1-1.4-0.1c-9.8-13.5-27.9-18.4-43.3-11.6
	c-4.1,1.8-7.7,4.3-10.8,7.4c0.5-2.3,0.4-4.6-0.3-6.8c-3-9.4,1.2-19.6,9.9-24.3C316.2,57.8,327.1,60,333.3,67.6z M151.7,132.7
	c-1.4-3.1-1.8-6.5-0.8-9.8c1.7-5.9,7-9.9,13.1-10.1c4.4-0.1,8.5-2.3,10.9-5.8c5.6-8.1,16.3-11.1,25.3-7c3.6,1.6,6.6,4.2,8.7,7.4
	c-2,4.7-2.8,9.9-2.1,15.2c0.5,3.6,1.6,7,3.3,10.1L151.7,132.7L151.7,132.7z M306,107.3c2.2-3.2,5.2-5.8,8.7-7.4c9-4,19.7-1.1,25.3,7
	c2.5,3.5,6.6,5.7,10.9,5.8c6.1,0.1,11.3,4.2,13.1,10.1c1,3.3,0.7,6.8-0.8,9.8h-58.5c1.7-3.1,2.8-6.5,3.3-10.1
	C308.8,117.2,308,112,306,107.3L306,107.3z M430.1,106.1c5.5,2.6,8.6,8.4,7.9,14.5c-0.8,6.1-5.8,11.1-11.9,11.9
	c-5.3,0.7-10.5-1.7-13.5-6.1c-2.3-3.4-6.1-5.5-10.3-5.5h0c-4.2,0-8,2-10.3,5.5c-2.4,3.5-6.1,5.8-10.2,6.2c0,0,0,0.1-0.1,0.1H379
	c1-4.6,0.8-9.5-0.6-14.1c-1.2-3.9-3.1-7.4-5.6-10.4h0c-0.2-0.3-0.5-0.5-0.7-0.8c0.7-0.5,1.4-0.9,2.1-1.3c4-1.9,6.8-5.5,7.6-9.8
	c1.9-9.7,10.4-16.7,20.3-16.7c9.9,0,18.4,7,20.3,16.7C423.3,100.6,426.1,104.2,430.1,106.1L430.1,106.1z M352.1,49.7
	c4.3-0.8,8.1-3.5,10-7.4c4.4-8.8,14.5-13.3,24-10.7c9.5,2.6,15.8,11.7,15,21.5c-0.3,4.3,1.4,8.6,4.7,11.5c0.1,0.1,0.2,0.2,0.3,0.2
	c-1.3-0.1-2.6-0.2-3.9-0.2c-11.7,0-22.3,5.7-28.8,14.7c-0.3-1-0.6-2-1-3.1c-4.4-11.6-15.6-19.1-28-18.7c-0.5-0.6-1.1-1.2-1.6-1.8
	C344.9,52.6,348.2,50.4,352.1,49.7L352.1,49.7z M260,41.5c4-1.9,6.8-5.5,7.6-9.8C269.5,22,278.1,15,287.9,15s18.4,7,20.3,16.7
	c0.8,4.2,3.7,7.9,7.6,9.8c1.9,0.9,3.6,2.2,4.8,3.8c-6.8-0.7-13.9,0.7-20.3,4.1c-9.9,5.3-16.4,14.8-18.2,25.3
	c-6.5-6.2-15.2-10-24.7-10c-0.2,0-0.3,0-0.5,0c-2.6-2.2-4.4-5.4-4.8-8.7C251.4,49.9,254.6,44.1,260,41.5L260,41.5z M201.6,35.4
	c4.1,1.6,8.7,1.1,12.3-1.2c8.3-5.3,19.3-4,26.1,3.1c0.1,0.1,0.3,0.3,0.4,0.5c0,0.1,0,0.1,0.1,0.2c0.2,0.4,0.5,0.9,0.8,1.2
	c-3.3,5.5-4.8,12-3.9,18.7c0.5,3.9,1.8,7.5,3.7,10.8c-3,1.6-5.8,3.6-8.3,5.9c-1.8-10.5-8.3-20-18.2-25.3c-9.5-5.1-20.4-5.5-29.9-1.8
	c-0.5-0.8-1.1-1.6-1.7-2.3c0.5-2.1,1.4-4,2.7-5.6C189.5,34.9,195.9,33.2,201.6,35.4L201.6,35.4z M109.1,64.6
	c3.3-2.9,5.1-7.2,4.7-11.5c-0.8-9.8,5.5-18.9,15-21.5c9.5-2.6,19.6,1.8,24,10.7c1.9,3.9,5.6,6.6,10,7.4c3.9,0.7,7.2,2.9,9.3,6.1
	c-0.6,0.6-1.1,1.2-1.6,1.8c-12.3-0.4-23.5,7.1-28,18.7c-0.4,1-0.7,2-1,3.1c-6.5-9-17.1-14.7-28.8-14.7c-1.3,0-2.6,0.1-3.9,0.2
	C109,64.8,109.1,64.7,109.1,64.6z M84.9,106.1c4-1.9,6.8-5.5,7.6-9.8c1.9-9.7,10.4-16.7,20.3-16.7c9.9,0,18.4,7,20.3,16.7
	c0.8,4.2,3.7,7.9,7.6,9.8c0.7,0.4,1.5,0.8,2.1,1.3c-0.1,0.1-0.1,0.1-0.2,0.2c0,0,0,0,0,0c-2.7,3.1-4.9,6.8-6.1,11
	c-1.4,4.6-1.5,9.4-0.6,14c-5.1,0.4-10-1.9-12.9-6.2c-2.3-3.4-6.1-5.5-10.3-5.5h0c-4.2,0-8,2-10.3,5.5c-3,4.5-8.1,6.8-13.5,6.1
	c-6.1-0.8-11.1-5.8-11.9-11.9C76.3,114.5,79.4,108.7,84.9,106.1L84.9,106.1z M226.2,187.3h59.6L279.6,497h-47.2L226.2,187.3z
	 M339.3,497h-44.7l6.2-309.7h56.6L339.3,497z M450.5,168.3c0,2.2-1.8,4.1-4.1,4.1H65.6c-2.2,0-4.1-1.8-4.1-4.1v-16.6
	c0-2.2,1.8-4.1,4.1-4.1h380.8c2.2,0,4.1,1.8,4.1,4.1V168.3z"/>
</svg>
